<?xml version="1.0" encoding="utf-8"?>
<!-- Generator: Adobe Illustrator 27.2.0, SVG Export Plug-In . SVG Version: 6.00 Build 0)  -->
<svg version="1.1" id="Layer_1" xmlns="http://www.w3.org/2000/svg" xmlns:xlink="http://www.w3.org/1999/xlink" x="0px" y="0px"
	 viewBox="0 0 512 512" style="enable-background:new 0 0 512 512;" xml:space="preserve">
<style type="text/css">
	.st0{fill:#F0CDC2;}
	.st1{fill:#1616B4;}
	.st2{fill:#C9B3F5;}
	.st3{fill:#88AAF1;}
	.st4{fill:#B8FAF6;}
</style>
<g>
	<polygon class="st0" points="255.7,509.6 255.7,382.3 98.3,290.4 	"/>
	<path class="st1" d="M255.7,511c-0.6,0-0.8-0.3-1.1-0.6L97.1,291.3c-0.3-0.6-0.3-1.4,0-1.7c0.6-0.6,1.1-0.6,1.7-0.3l157.5,92.1
		c0.6,0.3,0.6,0.8,0.6,1.1v127c0,0.6-0.3,1.1-0.8,1.4H255.7z M103.3,294.9l151,210.2v-122L103.3,294.9z"/>
	<polygon class="st2" points="256.3,509.6 256.3,382.3 413.8,290.4 	"/>
	<path class="st1" d="M256.3,511h-0.6c-0.6-0.3-0.8-0.8-0.8-1.4V382.3c0-0.6,0.3-0.8,0.6-1.1L412.9,289c0.6-0.3,1.4-0.3,1.7,0.3
		c0.6,0.6,0.6,1.1,0,1.7L257.1,510.2C257.1,510.7,256.6,511,256.3,511z M257.7,383.1v122l151-210.4L257.7,383.1z"/>
	<polygon class="st3" points="255.7,350.7 255.7,188.4 96.6,259.7 	"/>
	<path class="st1" d="M255.7,352.1l-0.6-0.3L96,260.8c-0.6-0.3-0.8-0.8-0.8-1.4s0.3-1.1,0.8-1.1L255.2,187c0.6-0.3,0.8-0.3,1.4,0
		c0.3,0.3,0.6,0.6,0.6,1.1v162.3c0,0.6-0.3,0.8-0.6,1.1L255.7,352.1z M99.7,259.7l154.7,88.7V190.7L99.7,259.7z"/>
	<polygon class="st2" points="256.3,350.7 256.3,188.4 415.5,259.7 	"/>
	<path class="st1" d="M256.3,352.1l-0.8-0.3c-0.6-0.3-0.6-0.8-0.6-1.1V188.4c0-0.6,0.3-0.8,0.6-1.1s0.8-0.3,1.4,0L416,258.6
		c0.6,0.3,0.8,0.6,0.8,1.1s-0.3,1.1-0.8,1.4l-159.2,90.7L256.3,352.1z M257.7,190.7v157.8L412.4,260L257.7,190.7z"/>
	<polygon class="st0" points="96.6,259.7 255.7,2.5 255.7,188.4 	"/>
	<path class="st1" d="M96.6,261.1c-0.3,0-0.8-0.3-1.1-0.6c-0.3-0.6-0.6-1.1,0-1.7L254.6,1.7c0.3-0.6,0.8-0.8,1.7-0.6
		c0.6,0.3,0.8,0.8,0.8,1.4v185.9c0,0.6-0.3,1.1-0.8,1.4l-159.2,71L96.6,261.1z M254.3,7.6l-154.1,249l154.1-69V7.6z"/>
	<polygon class="st4" points="415.5,259.7 256.3,2.5 256.3,188.4 	"/>
	<path class="st1" d="M415.5,261.1h-0.6l-159.2-71.6c-0.6-0.3-0.8-0.8-0.8-1.4V2.5c0-0.6,0.3-1.1,1.1-1.4c0.6-0.3,1.1,0,1.7,0.6
		l158.9,257.2c0.3,0.6,0.3,1.1,0,1.7C416.3,260.8,415.7,261.1,415.5,261.1z M257.7,187.6l154.1,69L257.7,7.6V187.6z"/>
</g>
</svg>
